<svg id="Group_893" data-name="Group 893" xmlns="http://www.w3.org/2000/svg" xmlns:xlink="http://www.w3.org/1999/xlink" width="102.289" height="130.94" viewBox="0 0 102.289 130.94">
  <defs>
    <linearGradient id="linear-gradient" x1="0.281" y1="0.87" x2="0.687" y2="0.184" gradientUnits="objectBoundingBox">
      <stop offset="0" stop-color="#eebe47"/>
      <stop offset="0.12" stop-color="#f8db76"/>
      <stop offset="0.21" stop-color="#ffee96"/>
      <stop offset="0.446" stop-color="#a2621e"/>
      <stop offset="0.667" stop-color="#eea54c"/>
      <stop offset="1" stop-color="#eebe47"/>
    </linearGradient>
    <linearGradient id="linear-gradient-2" x1="0.719" y1="0.87" x2="0.313" y2="0.184" xlink:href="#linear-gradient"/>
    <linearGradient id="linear-gradient-3" x1="0.105" y1="0.124" x2="0.839" y2="0.823" xlink:href="#linear-gradient"/>
    <linearGradient id="linear-gradient-4" x1="0.13" y1="0.912" x2="0.862" y2="0.096" xlink:href="#linear-gradient"/>
    <radialGradient id="radial-gradient" cx="0.165" cy="0.094" r="0.91" gradientUnits="objectBoundingBox">
      <stop offset="0.102" stop-color="#930a0a"/>
      <stop offset="0.359" stop-color="#650404"/>
      <stop offset="0.565" stop-color="#450000"/>
      <stop offset="1" stop-color="#140000"/>
    </radialGradient>
    <linearGradient id="linear-gradient-5" x1="-0.126" y1="-0.065" x2="1.165" y2="1.101" xlink:href="#linear-gradient"/>
    <linearGradient id="linear-gradient-6" x1="-0.014" y1="-0.219" x2="2.667" y2="-0.295" xlink:href="#linear-gradient"/>
  </defs>
  <g id="Group_807" data-name="Group 807" transform="translate(0)">
    <g id="Group_810" data-name="Group 810" transform="translate(14.191 58.005)">
      <g id="Group_809" data-name="Group 809" transform="translate(0 0)">
        <path id="Path_441" data-name="Path 441" d="M422.69,129.363l23.261,9.316L420.473,202.3l-8.367-12.8-14.895,3.489Z" transform="translate(-397.211 -129.363)" fill="url(#linear-gradient)"/>
        <path id="Path_446" data-name="Path 446" d="M420.472,129.363l-23.261,9.316L422.689,202.3l8.367-12.8,14.895,3.489Z" transform="translate(-369.925 -129.363)" fill="url(#linear-gradient-2)"/>
      </g>
    </g>
    <path id="Path_442" data-name="Path 442" d="M472.073,137.319a7.167,7.167,0,0,1-4.9,6.447,11.257,11.257,0,0,0-6.628,6.129,7.164,7.164,0,0,1-6.807,4.381,11.262,11.262,0,0,0-8.324,3.494,7.164,7.164,0,0,1-7.9,1.788,11.263,11.263,0,0,0-9.017.435,7.162,7.162,0,0,1-8.031-1.018,11.256,11.256,0,0,0-8.621-2.675,7.166,7.166,0,0,1-7.2-3.705,11.265,11.265,0,0,0-7.186-5.462,7.164,7.164,0,0,1-5.5-5.944,11.258,11.258,0,0,0-4.886-7.591,7.166,7.166,0,0,1-3.133-7.463,11.266,11.266,0,0,0-1.994-8.806,7.164,7.164,0,0,1-.391-8.086,11.262,11.262,0,0,0,1.137-8.955,7.161,7.161,0,0,1,2.4-7.731,11.26,11.26,0,0,0,4.131-8.027,7.162,7.162,0,0,1,4.9-6.446,11.262,11.262,0,0,0,6.628-6.13,7.165,7.165,0,0,1,6.807-4.38,11.26,11.26,0,0,0,8.323-3.494,7.166,7.166,0,0,1,7.9-1.788,11.254,11.254,0,0,0,9.016-.436,7.166,7.166,0,0,1,8.031,1.019,11.256,11.256,0,0,0,8.623,2.675,7.167,7.167,0,0,1,7.2,3.705,11.263,11.263,0,0,0,7.186,5.462,7.161,7.161,0,0,1,5.5,5.944,11.262,11.262,0,0,0,4.886,7.591,7.166,7.166,0,0,1,3.133,7.464,11.261,11.261,0,0,0,1.995,8.8,7.166,7.166,0,0,1,.39,8.087,11.262,11.262,0,0,0-1.136,8.954,7.16,7.16,0,0,1-2.4,7.731A11.267,11.267,0,0,0,472.073,137.319Z" transform="translate(-380.501 -61.061)" fill="url(#linear-gradient-3)"/>
    <path id="Path_443" data-name="Path 443" d="M389.294,112.2a42.684,42.684,0,1,1,42.684,42.685A42.684,42.684,0,0,1,389.294,112.2Z" transform="translate(-381.826 -62.335)" fill="url(#linear-gradient-4)"/>
    <path id="Path_444" data-name="Path 444" d="M473.162,112.522A40.859,40.859,0,1,1,432.3,71.664,40.859,40.859,0,0,1,473.162,112.522Z" transform="translate(-382.15 -62.659)" fill="url(#radial-gradient)"/>
    <path id="Path_445" data-name="Path 445" d="M395.217,113.091a37.655,37.655,0,1,1,37.654,37.655A37.655,37.655,0,0,1,395.217,113.091Z" transform="translate(-382.719 -63.228)" fill="url(#linear-gradient-5)"/>
    <circle id="Ellipse_27" data-name="Ellipse 27" cx="35.342" cy="35.342" r="35.342" transform="translate(14.811 14.521)" fill="url(#radial-gradient)"/>
  </g>
  <g id="Group_823" data-name="Group 823" transform="translate(4.187 82.743)">
    <path id="Path_448" data-name="Path 448" d="M0,0H100.919L95.607,8.812l5.312,9.055H0L5.312,8.814Z" transform="translate(-2.816 0)" fill="url(#linear-gradient-6)"/>
    <text id="Cadeaus_beschikbaar" data-name="Cadeaus beschikbaar" transform="translate(47.185 11.634)" font-size="8" font-family="OpenSans-Bold, Open Sans" font-weight="700" letter-spacing="-0.025em"><tspan x="-40.581" y="0">Cadeaus beschikbaar</tspan></text>
  </g>
  <text id="_12" data-name="12" transform="translate(46.371 62.377)" fill="#fff" font-size="39" font-family="OpenSans-Bold, Open Sans" font-weight="700" letter-spacing="-0.025em"><tspan x="-21.774" y="0">12</tspan></text>
</svg>
