<svg xmlns="http://www.w3.org/2000/svg" xmlns:xlink="http://www.w3.org/1999/xlink" width="109" height="109" viewBox="0 0 109 109">
  <defs>
    <filter id="Ellipse_36" x="0" y="0" width="109" height="109" filterUnits="userSpaceOnUse">
      <feOffset dy="3" input="SourceAlpha"/>
      <feGaussianBlur stdDeviation="3" result="blur"/>
      <feFlood flood-opacity="0.122"/>
      <feComposite operator="in" in2="blur"/>
      <feComposite in="SourceGraphic"/>
    </filter>
  </defs>
  <g id="Group_863" data-name="Group 863" transform="translate(-1187 -144)">
    <g transform="matrix(1, 0, 0, 1, 1187, 144)" filter="url(#Ellipse_36)">
      <circle id="Ellipse_36-2" data-name="Ellipse 36" cx="45.5" cy="45.5" r="45.5" transform="translate(9 6)" fill="#fff"/>
    </g>
    <g id="Group_862" data-name="Group 862" transform="translate(11.183 58.183)">
      <path id="Subtraction_3" data-name="Subtraction 3" d="M74.628,37.3A37.314,37.314,0,1,1,37.314-.018,37.314,37.314,0,0,1,74.628,37.3Zm-4.616,0a32.7,32.7,0,1,0-32.7,32.7A32.7,32.7,0,0,0,70.012,37.3Z" transform="translate(1193.001 100.023)" fill="#f44336"/>
      <g id="Group_860" data-name="Group 860" transform="translate(1213.504 119.479)">
        <g id="gift-box" transform="translate(0 0)">
          <path id="Path_457" data-name="Path 457" d="M51.072,222.169H22.058a.725.725,0,0,0-.725.725V235.95a3.627,3.627,0,0,0,3.627,3.627H48.17A3.627,3.627,0,0,0,51.8,235.95V222.894A.725.725,0,0,0,51.072,222.169Z" transform="translate(-19.882 -207.911)" fill="#ffc107"/>
          <path id="Path_458" data-name="Path 458" d="M2.176,115.5H31.189a2.176,2.176,0,0,1,2.176,2.176v4.352a2.176,2.176,0,0,1-2.176,2.176H2.176A2.176,2.176,0,0,1,0,122.031v-4.352A2.176,2.176,0,0,1,2.176,115.5Z" transform="translate(0 -108.499)" fill="#ffd54f"/>
          <g id="Group_859" data-name="Group 859" transform="translate(8.953 0)">
            <path id="Path_459" data-name="Path 459" d="M139.394,20.967a8.026,8.026,0,0,1-7.648-5.7h0a2.167,2.167,0,0,1,2.672-2.674,8.026,8.026,0,0,1,5.7,7.648A.725.725,0,0,1,139.394,20.967Zm-6.257-6.116a6.569,6.569,0,0,0,5.485,4.616,6.569,6.569,0,0,0-4.617-5.486.717.717,0,0,0-.87.87Z" transform="translate(-131.665 -12.512)" fill="#f44336"/>
            <path id="Path_460" data-name="Path 460" d="M235.391,20.952a.725.725,0,0,1-.725-.725,8.026,8.026,0,0,1,5.7-7.648,2.167,2.167,0,0,1,2.674,2.675h0A8.026,8.026,0,0,1,235.391,20.952Zm5.573-7.01a.632.632,0,0,0-.184.028,6.569,6.569,0,0,0-4.617,5.485,6.569,6.569,0,0,0,5.485-4.619h0a.682.682,0,0,0-.189-.682A.7.7,0,0,0,240.965,13.943Z" transform="translate(-227.662 -12.497)" fill="#f44336"/>
            <path id="Path_461" data-name="Path 461" d="M171.374,121.173a.725.725,0,0,1-.514-1.239l4.352-4.352a.725.725,0,1,1,1.043,1.008l-.018.018-4.352,4.352A.725.725,0,0,1,171.374,121.173Z" transform="translate(-167.996 -108.366)" fill="#f44336"/>
            <rect id="Rectangle_75" data-name="Rectangle 75" width="1.451" height="24.661" transform="translate(7.004 7.004)" fill="#f44336"/>
            <path id="Path_462" data-name="Path 462" d="M239.856,121.437a.725.725,0,0,1-.514-.212l-4.352-4.352a.725.725,0,0,1,1.026-1.026l4.352,4.352a.725.725,0,0,1-.512,1.237Z" transform="translate(-227.775 -108.63)" fill="#f44336"/>
          </g>
        </g>
      </g>
    </g>
  </g>
</svg>
