<svg xmlns="http://www.w3.org/2000/svg" width="211" height="22" viewBox="0 0 211 22">
  <g id="Group_899" data-name="Group 899" transform="translate(-964 -894)">
    <g id="Group_847" data-name="Group 847" transform="translate(14)">
      <text id="Wij_respecteren_je_privacy" data-name="Wij respecteren je privacy" transform="translate(980 910)" fill="#fff" font-size="14" font-family="Poppins-Regular, Poppins"><tspan x="0" y="0">Wij respecteren je privacy</tspan></text>
      <circle id="Ellipse_35" data-name="Ellipse 35" cx="11" cy="11" r="11" transform="translate(950 894)" fill="#fff"/>
      <path id="Path_424" data-name="Path 424" d="M45.264,3.478c-.016-.355-.016-.695-.016-1.034a.476.476,0,0,0-.485-.485A6.492,6.492,0,0,1,39.932.133a.5.5,0,0,0-.679,0,6.492,6.492,0,0,1-4.831,1.826.476.476,0,0,0-.485.485c0,.339,0,.679-.016,1.034-.065,3.393-.162,8.046,5.509,10l.162.032.162-.032C45.41,11.524,45.329,6.887,45.264,3.478ZM39.039,8.891a.74.74,0,0,1-.482.183h-.023a.646.646,0,0,1-.482-.229L36.385,7a.688.688,0,0,1,.054-.975l0,0a.688.688,0,0,1,.968.054l1.217,1.35L41.839,4.37a.688.688,0,0,1,.977.03h0a.688.688,0,0,1-.032.97Z" transform="translate(921.495 898.299)" fill="#0fbfb3"/>
    </g>
  </g>
</svg>
